<?xml version="1.0" encoding="UTF-8"?>
<svg xmlns="http://www.w3.org/2000/svg" xmlns:xlink="http://www.w3.org/1999/xlink" width="512px" height="812px" viewBox="0 0 512 812" version="1.1">
<g id="surface1">
<path style=" stroke:none;fill-rule:nonzero;fill:rgb(29.411765%,29.411765%,29.411765%);fill-opacity:1;" d="M 382.125 297.734375 L 381.988281 296.210938 L 382.117188 294.726562 C 382.207031 293.785156 382.296875 292.839844 382.296875 291.878906 C 382.296875 268.203125 369.285156 245.902344 345.753906 229.328125 L 345.59375 176.257812 L 321.289062 176.511719 L 321.132812 141.644531 L 345.753906 141.390625 L 345.753906 86.332031 C 345.753906 71.1875 337.984375 58.867188 328.4375 58.867188 L 281.28125 59.125 L 281.28125 19.117188 C 281.28125 8.582031 275.875 0 269.226562 0 L 242.773438 0 C 236.125 0 230.71875 8.582031 230.71875 19.117188 L 230.878906 58.746094 L 230.878906 58.867188 L 183.5625 58.867188 C 174.015625 58.867188 166.246094 71.183594 166.246094 86.328125 L 166.40625 141.640625 L 190.710938 141.386719 L 190.867188 176.253906 L 166.246094 176.507812 L 166.34375 229.097656 C 142.714844 245.898438 129.703125 268.199219 129.703125 291.875 C 129.703125 292.835938 129.796875 293.78125 129.886719 294.722656 L 130.015625 296.160156 L 129.878906 297.734375 C 129.792969 298.582031 129.707031 299.429688 129.714844 300.382812 C 154.382812 437.730469 154.382812 582.9375 129.707031 720.363281 C 129.707031 721.355469 129.804688 722.308594 129.898438 723.261719 L 130.039062 724.808594 L 129.910156 726.164062 C 129.808594 727.167969 129.703125 728.160156 129.703125 729.1875 C 129.703125 774.847656 186.359375 812 256 812 C 325.640625 812 382.296875 774.847656 382.296875 729.1875 C 382.296875 728.160156 382.195312 727.167969 382.089844 726.164062 L 381.960938 724.867188 L 382.105469 723.222656 C 382.203125 722.277344 382.296875 721.335938 382.289062 720.296875 C 357.621094 582.9375 357.621094 437.730469 382.296875 300.308594 C 382.296875 299.429688 382.210938 298.582031 382.125 297.734375 Z M 239.671875 640.195312 L 254.105469 492.632812 L 256.433594 469.113281 L 256.40625 469.113281 L 256.433594 468.859375 L 212.160156 469.113281 L 198.230469 469.113281 L 234.101562 295.988281 L 271.535156 295.734375 L 285.980469 295.734375 L 265.132812 375.867188 L 255.375 413.078125 L 255.457031 413.0625 L 255.386719 413.332031 L 300.265625 405.945312 L 326.289062 401.808594 L 281.515625 525.28125 Z M 239.671875 640.195312 "/>
</g>
</svg>
